<svg width="13" height="14" viewBox="0 0 13 14" fill="none" xmlns="http://www.w3.org/2000/svg">
<path fill-rule="evenodd" clip-rule="evenodd" d="M6.5 9.33328C6.3765 9.33328 6.25354 9.28837 6.15333 9.19795L2.90333 6.28128C2.67367 6.07537 2.64225 5.70728 2.834 5.45995C3.02521 5.21262 3.36646 5.17937 3.59667 5.38528L6.50596 7.99628L9.41037 5.4792C9.64329 5.27737 9.98454 5.31703 10.172 5.56787C10.3594 5.8187 10.3225 6.18562 10.0896 6.38803L6.83962 9.20437C6.7405 9.29012 6.62025 9.33328 6.5 9.33328Z" fill="#142349"/>
<mask id="mask0_1249_609" style="mask-type:luminance" maskUnits="userSpaceOnUse" x="2" y="5" width="9" height="5">
<path fill-rule="evenodd" clip-rule="evenodd" d="M6.5 9.33328C6.3765 9.33328 6.25354 9.28837 6.15333 9.19795L2.90333 6.28128C2.67367 6.07537 2.64225 5.70728 2.834 5.45995C3.02521 5.21262 3.36646 5.17937 3.59667 5.38528L6.50596 7.99628L9.41037 5.4792C9.64329 5.27737 9.98454 5.31703 10.172 5.56787C10.3594 5.8187 10.3225 6.18562 10.0896 6.38803L6.83962 9.20437C6.7405 9.29012 6.62025 9.33328 6.5 9.33328Z" fill="white"/>
</mask>
<g mask="url(#mask0_1249_609)">
<rect width="13" height="14" fill="#142349"/>
</g>
</svg>
