<svg width="42" height="40" viewBox="0 0 42 40" fill="none" xmlns="http://www.w3.org/2000/svg">
<rect x="-0.5" y="0.5" width="41" height="39.0018" rx="19.5009" transform="matrix(-1 0 0 1 41 0)" stroke="#5C85FF"/>
<path fill-rule="evenodd" clip-rule="evenodd" d="M18.8666 28.1676C19.2073 28.1676 19.5456 28.0194 19.7766 27.7324L25.4093 20.7324C25.757 20.2996 25.7523 19.6812 25.3965 19.2542L19.5631 12.2542C19.1513 11.7596 18.4151 11.6931 17.9193 12.1049C17.4246 12.5167 17.3581 13.2529 17.7711 13.7476L22.992 20.0137L17.9578 26.2694C17.5541 26.7711 17.6335 27.5061 18.1363 27.9097C18.351 28.0836 18.61 28.1676 18.8666 28.1676" fill="#5C85FF"/>
<mask id="mask0_0_777" style="mask-type:luminance" maskUnits="userSpaceOnUse" x="17" y="11" width="9" height="18">
<path fill-rule="evenodd" clip-rule="evenodd" d="M18.8666 28.1676C19.2073 28.1676 19.5456 28.0194 19.7766 27.7324L25.4093 20.7324C25.757 20.2996 25.7523 19.6812 25.3965 19.2542L19.5631 12.2542C19.1513 11.7596 18.4151 11.6931 17.9193 12.1049C17.4246 12.5167 17.3581 13.2529 17.7711 13.7476L22.992 20.0137L17.9578 26.2694C17.5541 26.7711 17.6335 27.5061 18.1363 27.9097C18.351 28.0836 18.61 28.1676 18.8666 28.1676" fill="white"/>
</mask>
<g mask="url(#mask0_0_777)">
<rect width="28" height="28" transform="matrix(-1 0 0 1 35 6.00089)" fill="#5C85FF"/>
</g>
</svg>
