<svg width="42" height="40" viewBox="0 0 42 40" fill="none" xmlns="http://www.w3.org/2000/svg">
<rect x="0.5" y="0.5" width="41" height="39.0018" rx="19.5009" stroke="#5C85FF"/>
<path fill-rule="evenodd" clip-rule="evenodd" d="M23.1334 28.1676C22.7927 28.1676 22.4544 28.0194 22.2234 27.7324L16.5907 20.7324C16.243 20.2996 16.2477 19.6812 16.6035 19.2542L22.4369 12.2542C22.8487 11.7596 23.5849 11.6931 24.0807 12.1049C24.5754 12.5167 24.6419 13.2529 24.2289 13.7476L19.008 20.0137L24.0422 26.2694C24.4459 26.7711 24.3665 27.5061 23.8637 27.9097C23.649 28.0836 23.39 28.1676 23.1334 28.1676Z" fill="#231F20"/>
<mask id="mask0_0_776" style="mask-type:luminance" maskUnits="userSpaceOnUse" x="16" y="11" width="9" height="18">
<path fill-rule="evenodd" clip-rule="evenodd" d="M23.1334 28.1676C22.7927 28.1676 22.4544 28.0194 22.2234 27.7324L16.5907 20.7324C16.243 20.2996 16.2477 19.6812 16.6035 19.2542L22.4369 12.2542C22.8487 11.7596 23.5849 11.6931 24.0807 12.1049C24.5754 12.5167 24.6419 13.2529 24.2289 13.7476L19.008 20.0137L24.0422 26.2694C24.4459 26.7711 24.3665 27.5061 23.8637 27.9097C23.649 28.0836 23.39 28.1676 23.1334 28.1676Z" fill="white"/>
</mask>
<g mask="url(#mask0_0_776)">
<rect x="7" y="6.00089" width="28" height="28" fill="#5C85FF"/>
</g>
</svg>
