<svg width="107" height="107" viewBox="0 0 107 107" fill="none" xmlns="http://www.w3.org/2000/svg">
<g filter="url(#filter0_d_0_852)">
<rect x="10.1" y="10.1" width="86" height="86" rx="6" fill="#C7F0FD"/>
</g>
<path d="M47.6762 62.7509C47.7056 62.0665 47.9967 61.4199 48.4887 60.9461C48.9807 60.4722 49.6357 60.2077 50.3169 60.2077C50.9982 60.2077 51.6531 60.4722 52.1452 60.9461C52.6372 61.4199 52.9282 62.0665 52.9577 62.7509C53.1121 69.2346 55.166 74.359 57.6677 74.359C60.2699 74.359 62.3855 68.8222 62.3855 61.9872C62.3869 60.7838 62.3191 59.5813 62.1825 58.3857C62.0955 57.5644 62.1789 56.734 62.4274 55.9468C62.676 55.1597 63.0843 54.4329 63.6265 53.8126C65.7328 51.2401 66.8611 47.9985 66.8099 44.6667C66.8099 37.6866 62.2157 32.0353 56.5404 32.0353C55.3294 32.0364 54.1323 32.2947 53.0274 32.7933C52.2301 33.1502 51.3672 33.3346 50.4945 33.3346C49.6219 33.3346 48.7589 33.1502 47.9617 32.7933C46.8568 32.2947 45.6597 32.0364 44.4487 32.0353C38.7811 32.0353 34.1792 37.6866 34.1792 44.6667C34.1353 47.8838 35.1847 51.0197 37.154 53.5555C37.668 54.1726 38.0519 54.8884 38.2823 55.6593C38.5126 56.4302 38.5847 57.2402 38.4942 58.04C38.3287 59.3491 38.2466 60.6675 38.2484 61.9872C38.2484 68.8222 40.364 74.359 42.9662 74.359C45.4679 74.359 47.5218 69.2346 47.6762 62.7509Z" stroke="#45CDF7" stroke-width="2" stroke-linecap="round" stroke-linejoin="round"/>
<path d="M25.1 76.3056C28.0967 73.1556 33.1681 70.4695 38.9051 68.2399C41.6652 67.1645 44.582 66.1925 47.4989 65.3343C49.3494 64.7759 51.1894 64.2692 52.9981 63.8039C56.3645 62.9353 59.5741 62.2115 62.3864 61.6428C65.9201 60.8983 68.816 60.3916 70.5306 60.1124C70.9862 60.0388 71.4011 59.8052 71.7016 59.4531C72.0021 59.101 72.1688 58.6531 72.172 58.1891V58.1064C72.1527 57.6453 71.9723 57.2058 71.6625 56.8654C71.3527 56.5249 70.9333 56.3053 70.4783 56.2452L62.7524 55.1594" stroke="#45CDF7" stroke-width="2" stroke-linecap="round" stroke-linejoin="round"/>
<path d="M35.7373 51.3439L29.4226 50.4546C28.7957 50.372 28.2199 50.0634 27.8022 49.586C27.3831 49.1179 27.152 48.5098 27.1539 47.8799C27.1602 47.1887 27.4369 46.5277 27.9241 46.0401C28.4112 45.5524 29.0698 45.2773 29.7572 45.2741C31.2836 45.2638 32.7577 45.2328 34.19 45.1914C49.1611 44.7675 59.3544 42.9786 66.2651 40.6003C75.9749 37.2633 79.2034 32.7738 80.0999 29.3057" stroke="#45CDF7" stroke-width="2" stroke-linecap="round" stroke-linejoin="round"/>
<defs>
<filter id="filter0_d_0_852" x="-2.47955e-05" y="-2.47955e-05" width="106.2" height="106.2" filterUnits="userSpaceOnUse" color-interpolation-filters="sRGB">
<feFlood flood-opacity="0" result="BackgroundImageFix"/>
<feColorMatrix in="SourceAlpha" type="matrix" values="0 0 0 0 0 0 0 0 0 0 0 0 0 0 0 0 0 0 127 0" result="hardAlpha"/>
<feOffset/>
<feGaussianBlur stdDeviation="5.05"/>
<feComposite in2="hardAlpha" operator="out"/>
<feColorMatrix type="matrix" values="0 0 0 0 0.192157 0 0 0 0 0.466667 0 0 0 0 0.882353 0 0 0 0.16 0"/>
<feBlend mode="normal" in2="BackgroundImageFix" result="effect1_dropShadow_0_852"/>
<feBlend mode="normal" in="SourceGraphic" in2="effect1_dropShadow_0_852" result="shape"/>
</filter>
</defs>
</svg>
