<svg width="107" height="107" viewBox="0 0 107 107" fill="none" xmlns="http://www.w3.org/2000/svg">
<g opacity="0.26" filter="url(#filter0_d_0_808)">
<rect x="10.1" y="10.1" width="86" height="86" rx="6" fill="#D17633"/>
</g>
<path d="M50.9089 48.5824C50.9294 48.1175 51.1286 47.6785 51.465 47.3568C51.8015 47.0351 52.2491 46.8555 52.7148 46.8555C53.1804 46.8555 53.6281 47.0351 53.9645 47.3568C54.3009 47.6785 54.5002 48.1175 54.5206 48.5824C54.6262 52.9852 56.0308 56.4649 57.7416 56.4649C59.5211 56.4649 60.9679 52.7052 60.9679 48.0638C60.9689 47.2466 60.9225 46.43 60.8291 45.6182C60.7696 45.0605 60.8266 44.4965 60.9966 43.9619C61.1666 43.4274 61.4458 42.934 61.8166 42.5129C63.2568 40.7665 64.0284 38.5651 63.9935 36.3023C63.9935 31.5625 60.8517 27.725 56.9707 27.725C56.1426 27.7258 55.324 27.9012 54.5683 28.2397C54.0231 28.4821 53.433 28.6073 52.8362 28.6073C52.2395 28.6073 51.6494 28.4821 51.1041 28.2397C50.3485 27.9012 49.5299 27.7258 48.7017 27.725C44.826 27.725 41.6789 31.5625 41.6789 36.3023C41.649 38.4872 42.3667 40.6167 43.7133 42.3383C44.0647 42.7572 44.3272 43.2432 44.4848 43.7667C44.6423 44.2902 44.6917 44.8403 44.6298 45.3834C44.5166 46.2724 44.4604 47.1677 44.4616 48.0638C44.4616 52.7051 45.9084 56.4649 47.6879 56.4649C49.3987 56.4649 50.8033 52.9852 50.9089 48.5824Z" stroke="#D17633" stroke-width="2" stroke-linecap="round" stroke-linejoin="round"/>
<path d="M60.169 35.4597C59.5744 34.0412 58.5846 32.8233 57.3173 31.9507" stroke="#D17633" stroke-width="2" stroke-linecap="round" stroke-linejoin="round"/>
<path d="M42.5162 66.7678L33.2815 56.464V43.5996C33.2751 42.8717 32.9797 42.1761 32.4601 41.6659C31.9406 41.1556 31.2395 40.8725 30.5111 40.8788C29.7827 40.8725 29.0816 41.1556 28.5621 41.6659C28.0425 42.1761 27.7471 42.8717 27.7407 43.5996V55.5843C27.7409 56.1628 27.8857 56.732 28.1618 57.2404L35.231 70.2736C35.7143 71.1633 35.9676 72.1595 35.968 73.1718V75.8074C35.9721 76.2786 36.1634 76.7288 36.4997 77.0591C36.836 77.3894 37.2898 77.5727 37.7614 77.5687H45.508C45.9796 77.5727 46.4334 77.3894 46.7697 77.0591C47.106 76.7288 47.2973 76.2786 47.3014 75.8074V64.6816C47.3007 64.2175 47.2075 63.7581 47.0271 63.3305C46.8467 62.9028 46.5828 62.5153 46.2509 62.1907L38.7231 54.7977C38.2359 54.3226 37.5838 54.0541 36.9031 54.0483C36.2224 54.0425 35.5658 54.2999 35.0706 54.7667C34.5894 55.2195 34.3047 55.8426 34.2775 56.5026C34.2503 57.1625 34.4827 57.8069 34.925 58.2978L42.5162 66.7678Z" stroke="#D17633" stroke-width="2" stroke-linecap="round" stroke-linejoin="round"/>
<path d="M62.809 66.7671L72.0436 56.4633V43.5989C72.05 42.8709 72.3455 42.1754 72.865 41.6651C73.3845 41.1549 74.0856 40.8718 74.814 40.878C75.5425 40.8718 76.2435 41.1549 76.7631 41.6651C77.2826 42.1754 77.5781 42.8709 77.5844 43.5989V55.5836C77.5842 56.162 77.4395 56.7313 77.1633 57.2397L70.0942 70.2729C69.6109 71.1626 69.3576 72.1588 69.3572 73.1711V75.8066C69.3531 76.2778 69.1618 76.7281 68.8255 77.0584C68.4892 77.3887 68.0353 77.572 67.5638 77.5679H59.8171C59.3456 77.572 58.8918 77.3887 58.5554 77.0584C58.2191 76.7281 58.0279 76.2778 58.0237 75.8066V64.6809C58.0244 64.2168 58.1177 63.7575 58.2981 63.3298C58.4784 62.9021 58.7423 62.5146 59.0743 62.19L66.602 54.797C67.0892 54.3219 67.7413 54.0534 68.422 54.0476C69.1027 54.0419 69.7593 54.2992 70.2545 54.766C70.7357 55.2188 71.0204 55.8419 71.0476 56.5019C71.0748 57.1618 70.8424 57.8062 70.4001 58.2971L62.809 66.7671Z" stroke="#D17633" stroke-width="2" stroke-linecap="round" stroke-linejoin="round"/>
<defs>
<filter id="filter0_d_0_808" x="5.72205e-06" y="-2.47955e-05" width="106.2" height="106.2" filterUnits="userSpaceOnUse" color-interpolation-filters="sRGB">
<feFlood flood-opacity="0" result="BackgroundImageFix"/>
<feColorMatrix in="SourceAlpha" type="matrix" values="0 0 0 0 0 0 0 0 0 0 0 0 0 0 0 0 0 0 127 0" result="hardAlpha"/>
<feOffset/>
<feGaussianBlur stdDeviation="5.05"/>
<feComposite in2="hardAlpha" operator="out"/>
<feColorMatrix type="matrix" values="0 0 0 0 0.192157 0 0 0 0 0.466667 0 0 0 0 0.882353 0 0 0 0.16 0"/>
<feBlend mode="normal" in2="BackgroundImageFix" result="effect1_dropShadow_0_808"/>
<feBlend mode="normal" in="SourceGraphic" in2="effect1_dropShadow_0_808" result="shape"/>
</filter>
</defs>
</svg>
