<svg width="107" height="107" viewBox="0 0 107 107" fill="none" xmlns="http://www.w3.org/2000/svg">
<g filter="url(#filter0_d_0_841)">
<rect x="10.1" y="10.1" width="86" height="86" rx="6" fill="#FFE9D9"/>
</g>
<path d="M40.7201 40.5533H40.9544C43.8705 40.5533 46.6671 41.8716 48.7291 44.2182C50.7911 46.5648 51.9496 49.7475 51.9496 53.0661V76.1739C51.9496 76.7344 51.7539 77.272 51.4056 77.6684C51.0573 78.0648 50.5849 78.2875 50.0923 78.2875H31.5822C31.0896 78.2875 30.6172 78.0648 30.2689 77.6684C29.9206 77.272 29.7249 76.7344 29.7249 76.1739V53.0661C29.7249 49.7475 30.8833 46.5648 32.9453 44.2182C35.0073 41.8716 37.804 40.5533 40.7201 40.5533Z" stroke="#FF9140" stroke-width="2" stroke-linecap="round" stroke-linejoin="round"/>
<path d="M62.9448 40.5533H63.1791C66.0952 40.5533 68.8919 41.8716 70.9539 44.2182C73.0159 46.5648 74.1743 49.7475 74.1743 53.0661V76.1739C74.1743 76.7344 73.9786 77.272 73.6303 77.6684C73.282 78.0648 72.8096 78.2875 72.317 78.2875H53.8069C53.3143 78.2875 52.8419 78.0648 52.4936 77.6684C52.1453 77.272 51.9496 76.7344 51.9496 76.1739V53.0661C51.9496 49.7475 53.108 46.5648 55.17 44.2182C57.232 41.8716 60.0287 40.5533 62.9448 40.5533Z" stroke="#FF9140" stroke-width="2" stroke-linecap="round" stroke-linejoin="round"/>
<path d="M30.2253 49.3228H27.8424C27.5957 49.3237 27.3512 49.2692 27.1231 49.1622C26.895 49.0552 26.6878 48.8979 26.5134 48.6994C26.3389 48.5009 26.2007 48.265 26.1067 48.0054C26.0127 47.7459 25.9647 47.4677 25.9656 47.1869V33.9233C25.9647 33.6426 26.0127 33.3644 26.1067 33.1048C26.2007 32.8452 26.3389 32.6094 26.5134 32.4109C26.6878 32.2124 26.895 32.0551 27.1231 31.9481C27.3512 31.8411 27.5957 31.7865 27.8424 31.7875H76.0577C76.3044 31.7865 76.5488 31.8411 76.7769 31.9481C77.005 32.0551 77.2123 32.2124 77.3867 32.4109C77.5612 32.6094 77.6994 32.8452 77.7934 33.1048C77.8874 33.3644 77.9354 33.6426 77.9345 33.9233V47.1869C77.9354 47.4677 77.8874 47.7459 77.7934 48.0054C77.6994 48.265 77.5612 48.5008 77.3867 48.6994C77.2123 48.8979 77.005 49.0552 76.7769 49.1622C76.5488 49.2692 76.3044 49.3237 76.0577 49.3228H73.6738" stroke="#FF9140" stroke-width="2" stroke-linecap="round" stroke-linejoin="round"/>
<path d="M45.8248 56.194H35.85C34.8243 56.194 33.9927 57.1403 33.9927 58.3076V64.3112C33.9927 65.4785 34.8243 66.4248 35.85 66.4248H45.8248C46.8506 66.4248 47.6821 65.4785 47.6821 64.3112V58.3076C47.6821 57.1403 46.8506 56.194 45.8248 56.194Z" stroke="#FF9140" stroke-width="2" stroke-linecap="round" stroke-linejoin="round"/>
<path d="M68.0493 56.194H58.0745C57.0487 56.194 56.2172 57.1403 56.2172 58.3076V64.3112C56.2172 65.4785 57.0487 66.4248 58.0745 66.4248H68.0493C69.0751 66.4248 69.9066 65.4785 69.9066 64.3112V58.3076C69.9066 57.1403 69.0751 56.194 68.0493 56.194Z" stroke="#FF9140" stroke-width="2" stroke-linecap="round" stroke-linejoin="round"/>
<path d="M25.309 61.3094H33.9925" stroke="#FF9140" stroke-width="2" stroke-linecap="round" stroke-linejoin="round"/>
<path d="M69.9065 61.3094H78.5901" stroke="#FF9140" stroke-width="2" stroke-linecap="round" stroke-linejoin="round"/>
<path d="M47.682 61.3094H56.2173" stroke="#FF9140" stroke-width="2" stroke-linecap="round" stroke-linejoin="round"/>
<path d="M40.8374 59.2805V63.3383" stroke="#FF9140" stroke-width="2" stroke-linecap="round" stroke-linejoin="round"/>
<path d="M39.0127 61.3094H42.6616" stroke="#FF9140" stroke-width="2" stroke-linecap="round" stroke-linejoin="round"/>
<path d="M63.0618 59.363V63.4209" stroke="#FF9140" stroke-width="2" stroke-linecap="round" stroke-linejoin="round"/>
<path d="M61.2374 61.392H64.8864" stroke="#FF9140" stroke-width="2" stroke-linecap="round" stroke-linejoin="round"/>
<defs>
<filter id="filter0_d_0_841" x="-1.90735e-06" y="-2.47955e-05" width="106.2" height="106.2" filterUnits="userSpaceOnUse" color-interpolation-filters="sRGB">
<feFlood flood-opacity="0" result="BackgroundImageFix"/>
<feColorMatrix in="SourceAlpha" type="matrix" values="0 0 0 0 0 0 0 0 0 0 0 0 0 0 0 0 0 0 127 0" result="hardAlpha"/>
<feOffset/>
<feGaussianBlur stdDeviation="5.05"/>
<feComposite in2="hardAlpha" operator="out"/>
<feColorMatrix type="matrix" values="0 0 0 0 0.192157 0 0 0 0 0.466667 0 0 0 0 0.882353 0 0 0 0.16 0"/>
<feBlend mode="normal" in2="BackgroundImageFix" result="effect1_dropShadow_0_841"/>
<feBlend mode="normal" in="SourceGraphic" in2="effect1_dropShadow_0_841" result="shape"/>
</filter>
</defs>
</svg>
