<svg width="107" height="107" viewBox="0 0 107 107" fill="none" xmlns="http://www.w3.org/2000/svg">
<g filter="url(#filter0_d_0_819)">
<rect x="10.1" y="10.1" width="86" height="86" rx="6" fill="#FEF5D8"/>
</g>
<path d="M28.5375 63.4602V70.9015C28.5554 72.2168 29.0941 73.4713 30.0355 74.3901C30.9769 75.3088 32.2441 75.8168 33.5595 75.8027H70.7642C72.0821 75.8203 73.3532 75.3139 74.298 74.3949C75.2428 73.4759 75.7841 72.2194 75.8031 70.9015V62.6078C75.8031 65.898 73.1528 69.4269 69.8864 69.4269C67.5991 69.4269 65.6156 68.9155 64.6366 67.4749C64.5634 67.3631 64.4631 67.2717 64.345 67.2091C64.2269 67.1465 64.095 67.1148 63.9613 67.117C63.8351 67.1228 63.7121 67.1582 63.6021 67.2204C63.4922 67.2826 63.3984 67.3698 63.3283 67.4749C62.3408 68.9155 60.3573 69.4269 58.07 69.4269C55.7827 69.4269 53.7993 68.9155 52.8202 67.4749C52.7483 67.3674 52.651 67.2792 52.5369 67.2183C52.4228 67.1573 52.2954 67.1254 52.1661 67.1254C52.0367 67.1254 51.9093 67.1573 51.7952 67.2183C51.6811 67.2792 51.5838 67.3674 51.5119 67.4749C50.5244 68.9155 48.541 69.4269 46.2536 69.4269C43.9663 69.4269 41.9829 68.9155 41.0038 67.4749C40.9338 67.3698 40.84 67.2826 40.73 67.2204C40.62 67.1582 40.497 67.1228 40.3708 67.117C40.2372 67.1148 40.1052 67.1465 39.9871 67.2091C39.869 67.2717 39.7687 67.3631 39.6956 67.4749C38.708 68.9155 36.7246 69.4269 34.4373 69.4269C32.864 69.417 31.3589 68.7831 30.2527 67.6643C29.1465 66.5456 28.5296 65.0335 28.5375 63.4602Z" stroke="#F9CD3B" stroke-width="2" stroke-linecap="round" stroke-linejoin="round"/>
<path d="M63.9613 55.9678V67.1169C64.0949 67.1147 64.2269 67.1464 64.3449 67.209C64.463 67.2716 64.5633 67.3631 64.6365 67.4749C65.6156 68.9154 67.599 69.4268 69.8863 69.4268C73.1527 69.4268 75.803 65.8979 75.803 62.6078V55.9678H63.9613Z" stroke="#F9CD3B" stroke-width="2" stroke-linecap="round" stroke-linejoin="round"/>
<path d="M52.1702 55.9678V67.1254C52.2988 67.1265 52.4251 67.159 52.5384 67.2199C52.6516 67.2807 52.7483 67.3683 52.8201 67.4749C53.7992 68.9154 55.7827 69.4268 58.07 69.4268C60.3573 69.4268 62.3408 68.9154 63.3283 67.4749C63.3983 67.3697 63.4921 67.2825 63.6021 67.2203C63.7121 67.1582 63.8351 67.1227 63.9613 67.1169V55.9678H52.1702Z" stroke="#F9CD3B" stroke-width="2" stroke-linecap="round" stroke-linejoin="round"/>
<path d="M40.3706 55.9678V67.1169C40.4968 67.1227 40.6199 67.1582 40.7298 67.2203C40.8398 67.2825 40.9336 67.3697 41.0036 67.4749C41.9827 68.9154 43.9662 69.4268 46.2535 69.4268C48.5408 69.4268 50.5243 68.9154 51.5118 67.4749C51.584 67.3666 51.6819 67.278 51.7968 67.217C51.9118 67.156 52.04 67.1245 52.1701 67.1254V55.9678H40.3706Z" stroke="#F9CD3B" stroke-width="2" stroke-linecap="round" stroke-linejoin="round"/>
<path d="M28.5375 55.9678V63.4601C28.5296 65.0334 29.1465 66.5455 30.2527 67.6643C31.3589 68.783 32.864 69.4169 34.4373 69.4268C36.7246 69.4268 38.708 68.9154 39.6956 67.4749C39.7687 67.3631 39.869 67.2716 39.9871 67.209C40.1052 67.1464 40.2372 67.1147 40.3708 67.1169V55.9678H28.5375Z" stroke="#F9CD3B" stroke-width="2" stroke-linecap="round" stroke-linejoin="round"/>
<path d="M64.5269 28.5375H59.3216C59.0977 28.5375 58.883 28.6264 58.7248 28.7847C58.5665 28.943 58.4775 29.1576 58.4775 29.3815V33.8466C58.4775 34.069 58.5653 34.2824 58.7218 34.4404L62.076 37.8278L65.1275 34.7462C65.284 34.5881 65.3718 34.3746 65.3717 34.1522L65.371 29.3814C65.3709 29.1575 65.282 28.9429 65.1237 28.7846C64.9654 28.6264 64.7508 28.5375 64.5269 28.5375Z" stroke="#F9CD3B" stroke-width="2" stroke-linecap="round" stroke-linejoin="round"/>
<path d="M62.0759 37.8278V41.8121" stroke="#F9CD3B" stroke-width="2" stroke-linecap="round" stroke-linejoin="round"/>
<path d="M32.224 31.831L36.7065 32.0438C40.7148 32.234 44.7319 32.0026 48.6918 31.3535L58.4777 29.7494" stroke="#F9CD3B" stroke-width="2" stroke-linecap="round" stroke-linejoin="round"/>
<path d="M32.224 39.2612C39.1737 39.2612 46.0654 37.9969 52.5626 35.53L58.4777 33.2842" stroke="#F9CD3B" stroke-width="2" stroke-linecap="round" stroke-linejoin="round"/>
<path d="M48.0198 31.4596V37.0408" stroke="#F9CD3B" stroke-width="2" stroke-linecap="round" stroke-linejoin="round"/>
<path d="M59.3778 41.8121H64.7743C64.949 41.8121 65.1194 41.8663 65.2619 41.9673C65.4045 42.0682 65.5123 42.2109 65.5703 42.3757L67.5645 48.0359C67.6542 48.2905 67.6815 48.5628 67.6442 48.8302C67.6069 49.0975 67.506 49.3519 67.3501 49.5722C67.1941 49.7925 66.9876 49.9722 66.7479 50.0962C66.5082 50.2202 66.2422 50.2849 65.9723 50.2849H58.1797C57.9098 50.2849 57.6439 50.2202 57.4041 50.0962C57.1644 49.9722 56.9579 49.7925 56.802 49.5722C56.646 49.3519 56.5452 49.0975 56.5079 48.8302C56.4706 48.5628 56.4979 48.2905 56.5876 48.0359L58.5817 42.3757C58.6397 42.2109 58.7475 42.0682 58.8901 41.9673C59.0327 41.8663 59.2031 41.8121 59.3778 41.8121Z" stroke="#F9CD3B" stroke-width="2" stroke-linecap="round" stroke-linejoin="round"/>
<defs>
<filter id="filter0_d_0_819" x="5.72205e-06" y="-2.47955e-05" width="106.2" height="106.2" filterUnits="userSpaceOnUse" color-interpolation-filters="sRGB">
<feFlood flood-opacity="0" result="BackgroundImageFix"/>
<feColorMatrix in="SourceAlpha" type="matrix" values="0 0 0 0 0 0 0 0 0 0 0 0 0 0 0 0 0 0 127 0" result="hardAlpha"/>
<feOffset/>
<feGaussianBlur stdDeviation="5.05"/>
<feComposite in2="hardAlpha" operator="out"/>
<feColorMatrix type="matrix" values="0 0 0 0 0.192157 0 0 0 0 0.466667 0 0 0 0 0.882353 0 0 0 0.16 0"/>
<feBlend mode="normal" in2="BackgroundImageFix" result="effect1_dropShadow_0_819"/>
<feBlend mode="normal" in="SourceGraphic" in2="effect1_dropShadow_0_819" result="shape"/>
</filter>
</defs>
</svg>
