<svg width="107" height="107" viewBox="0 0 107 107" fill="none" xmlns="http://www.w3.org/2000/svg">
<g opacity="0.4" filter="url(#filter0_d_0_830)">
<rect x="10.1" y="10.1" width="86" height="86" rx="6" fill="#C2D1FF"/>
</g>
<path d="M68.2767 31.4568C65.431 32.3006 62.9857 33.8796 61.2992 35.9622C59.6128 38.0448 58.774 40.5214 58.9058 43.0289C59.0377 45.5364 60.1332 47.9428 62.0318 49.8953C63.9304 51.8479 66.5322 53.2438 69.4556 53.8783C68.9852 54.8513 68.8179 55.9072 68.9691 56.9482C69.1717 58.3329 69.2717 59.7267 69.2685 61.1216C69.2685 68.3416 66.6955 74.1937 63.5237 74.1937C60.4736 74.1937 57.9755 68.7846 57.7883 61.9299C57.791 61.5774 57.7097 61.2279 57.5491 60.9017C57.3886 60.5754 57.1519 60.2787 56.8528 60.0286C56.5536 59.7786 56.1979 59.5802 55.8061 59.4448C55.4143 59.3094 54.9941 59.2397 54.5698 59.2397C54.1454 59.2397 53.7252 59.3094 53.3334 59.4448C52.9416 59.5802 52.5859 59.7786 52.2868 60.0286C51.9876 60.2787 51.751 60.5754 51.5904 60.9017C51.4299 61.2279 51.3486 61.5774 51.3512 61.9299C51.1641 68.7846 48.666 74.1937 45.6158 74.1937C42.444 74.1937 39.871 68.3416 39.871 61.1216C39.8693 59.8495 39.9505 58.5783 40.1143 57.3134C40.2235 56.4522 40.1242 55.5815 39.8221 54.7526C39.52 53.9237 39.0213 53.1535 38.3553 52.4872C35.7725 49.7266 34.4056 46.3147 34.4818 42.8191C34.4818 35.4437 40.0769 29.475 46.9912 29.475C48.4701 29.4766 49.9302 29.75 51.267 30.2755C52.2316 30.6517 53.2842 30.8467 54.3499 30.8467C55.4156 30.8467 56.4682 30.6517 57.4328 30.2755C58.7725 29.7491 60.236 29.4757 61.718 29.475C64.1125 29.4941 66.4271 30.1934 68.2767 31.4568Z" stroke="#2952CE" stroke-width="2" stroke-linecap="round" stroke-linejoin="round"/>
<path d="M71.3924 51.2825C73.2831 48.7413 74.2663 45.8063 74.2273 42.8191C74.2783 39.613 73.1345 36.4722 70.9526 33.8271C66.5552 35.4981 63.5705 38.7389 63.5705 42.4771C63.5705 46.3319 66.7516 49.6738 71.3924 51.2825Z" stroke="#2952CE" stroke-width="2" stroke-linecap="round" stroke-linejoin="round"/>
<path d="M40.5128 39.2871C41.5984 37.0885 43.4189 35.1939 45.7593 33.8271" stroke="#2952CE" stroke-width="2" stroke-linecap="round" stroke-linejoin="round"/>
<defs>
<filter id="filter0_d_0_830" x="-2.47955e-05" y="-2.47955e-05" width="106.2" height="106.2" filterUnits="userSpaceOnUse" color-interpolation-filters="sRGB">
<feFlood flood-opacity="0" result="BackgroundImageFix"/>
<feColorMatrix in="SourceAlpha" type="matrix" values="0 0 0 0 0 0 0 0 0 0 0 0 0 0 0 0 0 0 127 0" result="hardAlpha"/>
<feOffset/>
<feGaussianBlur stdDeviation="5.05"/>
<feComposite in2="hardAlpha" operator="out"/>
<feColorMatrix type="matrix" values="0 0 0 0 0.192157 0 0 0 0 0.466667 0 0 0 0 0.882353 0 0 0 0.16 0"/>
<feBlend mode="normal" in2="BackgroundImageFix" result="effect1_dropShadow_0_830"/>
<feBlend mode="normal" in="SourceGraphic" in2="effect1_dropShadow_0_830" result="shape"/>
</filter>
</defs>
</svg>
