<svg width="41" height="40" viewBox="0 0 41 40" fill="none" xmlns="http://www.w3.org/2000/svg">
<path d="M20.5 0.5C31.5574 0.5 40.5 9.24247 40.5 20.001C40.5 30.7594 31.5574 39.502 20.5 39.502C9.44264 39.502 0.500042 30.7594 0.5 20.001C0.5 9.24247 9.44262 0.5 20.5 0.5Z" stroke="#3366FF"/>
<path d="M20.9973 14.8697C18.1579 14.8697 15.8664 17.1614 15.8664 20.0009C15.8664 22.8405 18.1579 25.1321 20.9973 25.1321C23.8367 25.1321 26.1282 22.8405 26.1282 20.0009C26.1282 17.1614 23.8367 14.8697 20.9973 14.8697ZM20.9973 23.3358C19.1611 23.3358 17.6626 21.8373 17.6626 20.0009C17.6626 18.1646 19.1611 16.666 20.9973 16.666C22.8335 16.666 24.332 18.1646 24.332 20.0009C24.332 21.8373 22.8335 23.3358 20.9973 23.3358ZM26.3383 13.4637C25.6754 13.4637 25.14 13.9991 25.14 14.6621C25.14 15.3251 25.6754 15.8605 26.3383 15.8605C27.0013 15.8605 27.5366 15.3276 27.5366 14.6621C27.5368 14.5047 27.5059 14.3487 27.4458 14.2033C27.3856 14.0578 27.2974 13.9256 27.1861 13.8143C27.0748 13.703 26.9426 13.6147 26.7971 13.5545C26.6516 13.4944 26.4957 13.4635 26.3383 13.4637ZM30.9989 20.0009C30.9989 18.6199 31.0114 17.2515 30.9338 15.873C30.8563 14.2718 30.4911 12.8508 29.3203 11.6799C28.147 10.5066 26.7286 10.1438 25.1275 10.0663C23.7466 9.98872 22.3782 10.0012 20.9998 10.0012C19.6189 10.0012 18.2505 9.98872 16.8721 10.0663C15.271 10.1438 13.8501 10.5091 12.6793 11.6799C11.5061 12.8533 11.1433 14.2718 11.0658 15.873C10.9882 17.254 11.0007 18.6224 11.0007 20.0009C11.0007 21.3794 10.9882 22.7504 11.0658 24.1289C11.1433 25.7301 11.5086 27.1511 12.6793 28.3219C13.8526 29.4953 15.271 29.858 16.8721 29.9356C18.253 30.0131 19.6214 30.0006 20.9998 30.0006C22.3807 30.0006 23.7491 30.0131 25.1275 29.9356C26.7286 29.858 28.1495 29.4928 29.3203 28.3219C30.4936 27.1486 30.8563 25.7301 30.9338 24.1289C31.0139 22.7504 30.9989 21.3819 30.9989 20.0009ZM28.7974 25.9002C28.6148 26.3555 28.3947 26.6957 28.0419 27.046C27.6892 27.3988 27.3515 27.6189 26.8962 27.8015C25.5803 28.3244 22.4558 28.2068 20.9973 28.2068C19.5389 28.2068 16.4118 28.3244 15.0959 27.804C14.6406 27.6214 14.3004 27.4013 13.9502 27.0485C13.5975 26.6958 13.3773 26.358 13.1947 25.9027C12.6743 24.5842 12.7919 21.4595 12.7919 20.0009C12.7919 18.5424 12.6743 15.4151 13.1947 14.0992C13.3773 13.6439 13.5975 13.3036 13.9502 12.9534C14.3029 12.6031 14.6406 12.3804 15.0959 12.1978C16.4118 11.6774 19.5389 11.795 20.9973 11.795C22.4558 11.795 25.5828 11.6774 26.8987 12.1978C27.354 12.3804 27.6942 12.6006 28.0444 12.9534C28.3972 13.3061 28.6173 13.6439 28.7999 14.0992C29.3203 15.4151 29.2027 18.5424 29.2027 20.0009C29.2027 21.4595 29.3203 24.5842 28.7974 25.9002Z" fill="#3366FF"/>
</svg>
