<svg width="35" height="32" viewBox="0 0 35 32" fill="none" xmlns="http://www.w3.org/2000/svg">
<rect x="0.5" y="0.5" width="34" height="31" rx="15.5" stroke="#5C85FF"/>
<path fill-rule="evenodd" clip-rule="evenodd" d="M15.9163 21.5417C15.7374 21.5417 15.5576 21.4815 15.4096 21.358C15.0739 21.0786 15.0288 20.579 15.3083 20.2434L18.8518 15.9913L15.4357 11.7464C15.1618 11.406 15.2156 10.9072 15.5561 10.6333C15.8973 10.3594 16.3952 10.4132 16.6699 10.7537L20.4921 15.5037C20.728 15.7974 20.7249 16.2169 20.4834 16.5067L16.5251 21.2567C16.3683 21.4443 16.1435 21.5417 15.9163 21.5417Z" fill="#231F20"/>
<mask id="mask0_1187_149" style="mask-type:luminance" maskUnits="userSpaceOnUse" x="15" y="10" width="6" height="12">
<path fill-rule="evenodd" clip-rule="evenodd" d="M15.9163 21.5417C15.7374 21.5417 15.5576 21.4815 15.4096 21.358C15.0739 21.0786 15.0288 20.579 15.3083 20.2434L18.8518 15.9913L15.4357 11.7464C15.1618 11.406 15.2156 10.9072 15.5561 10.6333C15.8973 10.3594 16.3952 10.4132 16.6699 10.7537L20.4921 15.5037C20.728 15.7974 20.7249 16.2169 20.4834 16.5067L16.5251 21.2567C16.3683 21.4443 16.1435 21.5417 15.9163 21.5417Z" fill="white"/>
</mask>
<g mask="url(#mask0_1187_149)">
<rect x="8" y="6.5" width="19" height="19" fill="#5C85FF"/>
</g>
</svg>
