<svg width="41" height="40" viewBox="0 0 41 40" fill="none" xmlns="http://www.w3.org/2000/svg">
<path d="M20.5 0.5C31.5574 0.5 40.5 9.24248 40.5 20.001C40.5 30.7594 31.5574 39.502 20.5 39.502C9.44265 39.502 0.500048 30.7594 0.5 20.001C0.5 9.24248 9.44262 0.5 20.5 0.5Z" stroke="#3366FF"/>
<path d="M12.329 28.0013H15.6194V16.9008H12.329V28.0013ZM13.9742 12.0005C12.8774 12.0005 12 12.8006 12 13.8006C12 14.8007 12.8774 15.6007 13.9742 15.6007C15.071 15.6007 15.9484 14.8007 15.9484 13.8006C15.9484 12.8006 15.071 12.0005 13.9742 12.0005ZM21.2129 18.6008V16.9008H17.9226V28.0013H21.2129V22.301C21.2129 19.1009 25.7097 18.9009 25.7097 22.301V28.0013H29V21.201C29 15.8007 22.7484 16.0007 21.2129 18.6008Z" fill="#3366FF"/>
</svg>
