<svg width="41" height="40" viewBox="0 0 41 40" fill="none" xmlns="http://www.w3.org/2000/svg">
<path d="M20.5 0.5C31.5574 0.5 40.5 9.24247 40.5 20.001C40.5 30.7594 31.5574 39.502 20.5 39.502C9.44264 39.502 0.500042 30.7594 0.5 20.001C0.5 9.24247 9.44262 0.5 20.5 0.5Z" stroke="#3366FF"/>
<path d="M12.329 28.0012H15.6194V16.9007H12.329V28.0012ZM13.9742 12.0005C12.8774 12.0005 12 12.8005 12 13.8006C12 14.8006 12.8774 15.6006 13.9742 15.6006C15.071 15.6006 15.9484 14.8006 15.9484 13.8006C15.9484 12.8005 15.071 12.0005 13.9742 12.0005ZM21.2129 18.6008V16.9007H17.9226V28.0012H21.2129V22.3009C21.2129 19.1008 25.7097 18.9008 25.7097 22.3009V28.0012H29V21.2009C29 15.8007 22.7484 16.0007 21.2129 18.6008Z" fill="#3366FF"/>
</svg>
