<svg width="19" height="24" viewBox="0 0 19 24" fill="none" xmlns="http://www.w3.org/2000/svg">
<path d="M17.2727 9.42857C17.2727 7.38262 16.4538 5.42046 14.9961 3.97375C13.5385 2.52704 11.5615 1.71429 9.5 1.71429C7.43854 1.71429 5.46152 2.52704 4.00385 3.97375C2.54618 5.42046 1.72727 7.38262 1.72727 9.42857C1.72727 12.5931 4.27845 16.7177 9.5 21.6583C14.7215 16.7177 17.2727 12.5931 17.2727 9.42857ZM9.5 24C3.16609 18.2863 0 13.428 0 9.42857C0 6.92796 1.00089 4.52977 2.78249 2.76156C4.56408 0.993365 6.98044 0 9.5 0C12.0196 0 14.4359 0.993365 16.2175 2.76156C17.9991 4.52977 19 6.92796 19 9.42857C19 13.428 15.8339 18.2863 9.5 24Z" fill="#142349"/>
<path d="M9.5 12C10.1872 12 10.8462 11.729 11.332 11.2468C11.8179 10.7646 12.0909 10.1105 12.0909 9.42854C12.0909 8.74655 11.8179 8.0925 11.332 7.61026C10.8462 7.12803 10.1872 6.85711 9.5 6.85711C8.81285 6.85711 8.15384 7.12803 7.66795 7.61026C7.18206 8.0925 6.90909 8.74655 6.90909 9.42854C6.90909 10.1105 7.18206 10.7646 7.66795 11.2468C8.15384 11.729 8.81285 12 9.5 12ZM9.5 13.7143C8.35474 13.7143 7.2564 13.2627 6.44658 12.459C5.63677 11.6553 5.18182 10.5652 5.18182 9.42854C5.18182 8.29189 5.63677 7.20181 6.44658 6.39808C7.2564 5.59435 8.35474 5.14282 9.5 5.14282C10.6453 5.14282 11.7436 5.59435 12.5534 6.39808C13.3632 7.20181 13.8182 8.29189 13.8182 9.42854C13.8182 10.5652 13.3632 11.6553 12.5534 12.459C11.7436 13.2627 10.6453 13.7143 9.5 13.7143Z" fill="#142349"/>
</svg>
