<svg width="41" height="40" viewBox="0 0 41 40" fill="none" xmlns="http://www.w3.org/2000/svg">
<path d="M20.5 0.5C31.5574 0.5 40.5 9.24248 40.5 20.001C40.5 30.7594 31.5574 39.502 20.5 39.502C9.44265 39.502 0.500048 30.7594 0.5 20.001C0.5 9.24248 9.44262 0.5 20.5 0.5Z" stroke="#3366FF"/>
<path d="M21.5217 18.7757L27.4777 12.0005H26.066L20.8958 17.8831L16.7644 12.0005H12L18.2466 20.8969L12 28.0013H13.4117L18.8724 21.7884L23.2356 28.0013H28L21.5217 18.7757ZM19.5889 20.9747L18.956 20.0889L13.9199 13.0406H16.0879L20.1512 18.7288L20.7841 19.6146L26.0672 27.0092H23.8991L19.5889 20.9747Z" fill="#3366FF"/>
</svg>
