<svg width="41" height="40" viewBox="0 0 41 40" fill="none" xmlns="http://www.w3.org/2000/svg">
<path d="M20.5 0.5C31.5574 0.5 40.5 9.24247 40.5 20.001C40.5 30.7594 31.5574 39.502 20.5 39.502C9.44264 39.502 0.500042 30.7594 0.5 20.001C0.5 9.24247 9.44262 0.5 20.5 0.5Z" stroke="#3366FF"/>
<path d="M21.5217 18.7756L27.4777 12.0005H26.066L20.8958 17.883L16.7644 12.0005H12L18.2466 20.8969L12 28.0012H13.4117L18.8724 21.7883L23.2356 28.0012H28L21.5217 18.7756ZM19.5889 20.9746L18.956 20.0888L13.9199 13.0405H16.0879L20.1512 18.7288L20.7841 19.6145L26.0672 27.0091H23.8991L19.5889 20.9746Z" fill="#3366FF"/>
</svg>
