<svg width="19" height="24" viewBox="0 0 19 24" fill="none" xmlns="http://www.w3.org/2000/svg">
<path d="M17.2727 9.42857C17.2727 7.38262 16.4538 5.42046 14.9961 3.97375C13.5385 2.52704 11.5615 1.71429 9.5 1.71429C7.43854 1.71429 5.46152 2.52704 4.00385 3.97375C2.54618 5.42046 1.72727 7.38262 1.72727 9.42857C1.72727 12.5931 4.27845 16.7177 9.5 21.6583C14.7215 16.7177 17.2727 12.5931 17.2727 9.42857ZM9.5 24C3.16609 18.2863 0 13.428 0 9.42857C0 6.92796 1.00089 4.52976 2.78249 2.76156C4.56408 0.993365 6.98044 0 9.5 0C12.0196 0 14.4359 0.993365 16.2175 2.76156C17.9991 4.52976 19 6.92796 19 9.42857C19 13.428 15.8339 18.2863 9.5 24Z" fill="#142349"/>
</svg>
